<svg width="165" height="36" fill="none" xmlns="http://www.w3.org/2000/svg"><g clip-path="url(#clip0_676_900)" fill="#fff"><path d="M55.192 23.88h-4.935l1.533-1.602c1.133-1.163 2.027-2.254 2.663-3.247.634-1.016.942-2.07.942-3.224 0-3.126-2.582-5.484-6.005-5.484-3.822 0-6.103 2.875-6.103 5.656 0 .427.04.83.121 1.197.066.299.34.515.655.515h2.743a.675.675 0 00.506-.227.65.65 0 00.158-.52 6.163 6.163 0 01-.07-.772c0-1.282.762-2.11 1.941-2.11 1.18 0 1.918.79 1.918 2.013 0 1.046-.597 2.076-2.202 3.806l-5.742 6.143a.65.65 0 00-.177.446v.933l12.059-.023a.664.664 0 00.666-.66v-2.176c0-.363-.3-.66-.669-.66l-.002-.004zm10.574-7.57c-.491 0-.992.044-1.498.165l-.037-2.194h5.785a.666.666 0 00.67-.66v-2.346a.667.667 0 00-.67-.66h-8.994a.666.666 0 00-.669.66v7.896c0 .363.301.66.67.66h3.485c1.976 0 2.978.662 2.978 1.965s-1.004 2.134-2.559 2.134c-1.295 0-2.27-.556-3.16-1.803a.677.677 0 00-.931-.166l-1.83 1.266a.651.651 0 00-.207.855c1.258 2.28 3.528 3.588 6.226 3.588 3.761 0 6.597-2.547 6.597-5.923 0-3.569-2.945-5.435-5.856-5.435v-.002zm21.668-5.695h-10.08a.666.666 0 00-.668.66v15.44c0 .364.3.66.668.66h2.7a.666.666 0 00.67-.66l-.038-5.448h5.416a.666.666 0 00.668-.66v-2.346c0-.363-.3-.66-.668-.66l-5.378.037-.038-3.355h6.748a.666.666 0 00.67-.66v-2.346a.667.667 0 00-.67-.66v-.002zm14.689 10.225c1.713-.993 2.696-2.703 2.696-4.693 0-3.257-2.56-5.532-6.226-5.532H92.79a.666.666 0 00-.669.66v15.44c0 .364.3.66.669.66h2.7a.666.666 0 00.67-.66l-.038-5.011 1.939-.016 4.028 5.416c.126.17.327.271.541.271h2.973a.67.67 0 00.597-.36.65.65 0 00-.054-.688l-4.019-5.49-.003.003zm-1.416-4.693c0 1.23-.79 1.965-2.114 1.965l-2.435.037-.037-3.942h2.472c1.284 0 2.114.76 2.114 1.94zm13.359-5.532h-2.701a.665.665 0 00-.669.66v15.443c0 .364.3.66.669.66h2.701a.664.664 0 00.668-.66V11.275a.664.664 0 00-.668-.66zm11.042 0h-5.014a.665.665 0 00-.669.66v15.44c0 .364.3.66.669.66h5.172c2.648 0 5.029-.914 6.718-2.585 1.559-1.54 2.398-3.617 2.361-5.842.035-2.252-.753-4.242-2.279-5.757-1.703-1.69-4.201-2.601-6.96-2.58l.002.004zm5.103 8.333c0 2.894-2.013 4.764-5.126 4.764l-1.622.037-.037-9.466h1.659c3.162 0 5.126 1.788 5.126 4.665zm14.582-8.229a.668.668 0 00-.613-.396h-.699a.674.674 0 00-.613.396l-7.004 15.732a.65.65 0 00.051.625.666.666 0 00.562.3h2.887a.67.67 0 00.615-.4l.713-1.694 6.215-.023.748 1.716a.67.67 0 00.615.4h2.887a.67.67 0 00.559-.299.651.651 0 00.054-.625l-6.979-15.732h.002zm.697 11.166l-3.344.05 1.673-4.182 1.671 4.132zm19.419-10.941a.667.667 0 00-.578-.329h-2.95a.67.67 0 00-.585.34l-3.18 5.667-3.204-5.669a.672.672 0 00-.585-.338h-2.973a.662.662 0 00-.581.986l5.313 9.206v5.911c0 .363.301.66.669.66h2.701a.665.665 0 00.668-.66l-.004-5.918 5.294-9.199a.643.643 0 00-.003-.657h-.002zM20.683 16.156l-8.797 8.438 7.54 7.644a2.194 2.194 0 01-.044 3.135 2.268 2.268 0 01-3.178-.044l-9.109-9.232a2.194 2.194 0 01.045-3.134s.002 0 .004-.003c.003-.002 0-.002.003-.004l10.4-9.979a2.268 2.268 0 013.177.044 2.194 2.194 0 01-.044 3.135h.003z"/><path d="M35.873 16L20.794.711 20.776.7c-.01-.01-.014-.019-.021-.028a2.27 2.27 0 00-3.179-.044L.68 16.84a2.196 2.196 0 00-.044 3.135 2.27 2.27 0 003.178.044L19.098 5.355 32.65 19.093a2.27 2.27 0 003.178.043c.89-.855.909-2.256.044-3.134v-.003zM22.144 26.315c.884-.86.894-2.264.022-3.136a2.27 2.27 0 00-3.18-.021 2.196 2.196 0 00-.022 3.136 2.27 2.27 0 003.18.021z"/></g><defs><clipPath id="clip0_676_900"><path fill="#fff" d="M0 0h165v36H0z"/></clipPath></defs></svg>